M48
INCH
T01C0.0150
T02C0.0400
T03C0.0300
T04C0.1259
T05C0.0380
T06C0.0500
T07C0.1280
T08C0.0393
T09C0.0334
T10C0.0275
%
T01
X-011614Y+044488
X-009645Y+024803
X-035236Y+020866
X-011614Y+041732
X-030314Y+030708
X-026377Y+024803
X-031314Y+032677
X-031329Y+027545
X-034252Y+024346
X-034251Y+021850
X-022440Y+024803
X-009645Y+039566
X-016535Y+039566
X-011614Y+038582
X-010612Y+036048
X-017324Y+036596
X-017519Y+028740
X-024409Y+028740
X-021456Y+033661
X-028469Y+033038
X-020472Y+033661
X-028914Y+032696
X-028058Y+031497
X-027339Y+031908
X-026346Y+032285
X-018298Y+034614
X-018435Y+034134
X-004724Y+033661
X-012510Y+031977
X-013538Y+031429
X-017519Y+021850
X-009645Y+020866
X-018503Y+033661
X-017305Y+033757
X-014568Y+027094
X-010947Y+027025
X-008809Y+020059
X-009055Y+025787
X-027362Y+029724
X-025393Y+020866
X-029330Y+040551
X-012166Y+040535
X-012166Y+042783
X-028373Y+040126
X-011021Y+040126
X-011044Y+043232
X-021318Y+039624
X-035377Y+041519
X-035354Y+039378
X-034377Y+041519
X-033377Y+041519
X-033406Y+040169
X-016325Y+037647
X-016338Y+037007
X-031102Y+037598
X-034251Y+037598
X-030138Y+036962
X-032283Y+036962
T02
X-020472Y+022818
X-020472Y+021818
X-020472Y+020818
X-011614Y+025803
X-011614Y+024803
X-011614Y+023803
X-037204Y+021850
X-037204Y+020850
X-003740Y+037582
X-003740Y+038582
X-032283Y+027740
X-032283Y+028740
X-032283Y+029740
X-037204Y+038582
X-037204Y+037582
X-037204Y+036582
X-002755Y+040551
X-002755Y+041551
X-002755Y+042551
X-002755Y+043551
X-002755Y+044551
X-002755Y+045551
X-030314Y+028803
X-030314Y+024803
X-003740Y+034645
X-003740Y+035645
X-003740Y+031692
X-003740Y+032692
X-013566Y+028740
X-014566Y+028740
X-015566Y+028740
X-013385Y+021850
X-015944Y+021850
X-015944Y+020078
X-013385Y+020078
T03
X-029464Y+020669
X-033464Y+020669
X-032480Y+023622
X-028480Y+023622
X-032480Y+021653
X-028480Y+021653
X-032500Y+022696
X-028500Y+022696
X-009645Y+038582
X-005645Y+038582
X-009645Y+032677
X-005645Y+032677
X-009645Y+031692
X-005645Y+031692
X-033267Y+026287
X-032767Y+025787
X-033267Y+025287
X-025393Y+030708
X-025393Y+026708
X-020472Y+030708
X-020472Y+026708
X-019488Y+026708
X-019488Y+030708
X-028346Y+026771
X-028346Y+030771
X-026377Y+030708
X-026377Y+026708
X-024409Y+026771
X-024409Y+030771
X-023425Y+026771
X-023425Y+030771
X-010177Y+041269
X-009177Y+041769
X-010177Y+042269
X-009177Y+042769
X-010177Y+043269
X-009177Y+043769
X-018503Y+030708
X-018503Y+029708
X-022440Y+026771
X-022440Y+030771
X-021456Y+030708
X-021456Y+026708
X-029330Y+035629
X-028330Y+035629
X-027330Y+035629
X-026330Y+035629
X-025330Y+035629
X-024330Y+035629
X-023330Y+035629
X-022330Y+035629
X-021330Y+035629
X-020330Y+035629
X-019330Y+035629
X-018330Y+035629
X-017330Y+035629
X-016330Y+035629
X-016330Y+038629
X-017330Y+038629
X-018330Y+038629
X-019330Y+038629
X-020330Y+038629
X-021330Y+038629
X-022330Y+038629
X-023330Y+038629
X-024330Y+038629
X-025330Y+038629
X-026330Y+038629
X-027330Y+038629
X-028330Y+038629
X-029322Y+038629
X-010629Y+038582
X-014629Y+038582
X-020472Y+032783
X-019972Y+032283
X-020472Y+031783
X-016535Y+029724
X-012535Y+029724
X-023425Y+033661
X-019425Y+033661
X-027362Y+024803
X-027362Y+030803
X-031102Y+035629
X-031102Y+039629
X-030118Y+035629
X-030118Y+039629
X-034251Y+038570
X-034251Y+039370
X-034251Y+040170
X-032283Y+038570
X-032283Y+039370
X-032283Y+040170
T04
X-037204Y+044488
X-014370Y+044488
X-037204Y+025196
X-014370Y+025196
X-003740Y+024803
X-033267Y+035629
X-006692Y+035629
T05
X-035377Y+041519
X-035377Y+042519
X-034377Y+041519
X-034377Y+042519
X-033377Y+041519
X-033377Y+042519
X-032377Y+041519
X-032377Y+042519
X-031377Y+041519
X-031377Y+042519
X-030377Y+041519
X-030377Y+042519
X-029377Y+041519
X-029377Y+042519
X-028377Y+041519
X-028377Y+042519
X-027377Y+041519
X-027377Y+042519
X-026377Y+041519
X-026377Y+042519
X-025377Y+041519
X-025377Y+042519
X-024377Y+041519
X-024377Y+042519
X-023377Y+041519
X-023377Y+042519
X-022377Y+041519
X-022377Y+042519
X-021377Y+041519
X-021377Y+042519
X-020377Y+041519
X-020377Y+042519
X-019377Y+041519
X-019377Y+042519
X-018377Y+041519
X-018377Y+042519
X-017377Y+041519
X-017377Y+042519
X-016377Y+041519
X-016377Y+042519
T06
X-026377Y+021917
X-022440Y+021917
X-017519Y+019881
X-017519Y+026771
X-037204Y+032677
X-030314Y+032677
T07
X-006677Y+040519
X-006677Y+044519
T08
X-034015Y+029330
X-035236Y+027362
X-036456Y+029330
T09
X-011614Y+035629
X-009645Y+035629
X-015551Y+032677
X-013582Y+032677
T10
X-017696Y+032035
X-017696Y+031444
M30
